<?xml version="1.0" standalone="no"?>
<svg viewBox="0 0 200 200" xmlns="http://www.w3.org/2000/svg">
  <path fill="#EEEF20" d="M40,-74.1C49.4,-63.8,53,-48.2,53.8,-35C54.6,-21.8,52.7,-10.9,55.3,1.5C58,14,65.3,27.9,62.1,37C58.8,46,45.1,50.2,33,52.3C20.9,54.5,10.5,54.7,0.1,54.4C-10.2,54.2,-20.4,53.6,-29.2,49.6C-38.1,45.5,-45.6,38.1,-54.7,29.3C-63.9,20.4,-74.8,10.2,-76,-0.7C-77.2,-11.6,-68.8,-23.3,-61.5,-35.2C-54.1,-47.2,-47.8,-59.5,-37.7,-69.5C-27.6,-79.5,-13.8,-87.1,0.7,-88.4C15.3,-89.6,30.5,-84.5,40,-74.1Z" transform="translate(100 100)" />
</svg>
